<svg xmlns="http://www.w3.org/2000/svg" viewBox="0 0 24 24" aria-hidden="true">
  <path
    fill="#000"
    d="M8.40001 6.20006c.44183-.33137 1.06863-.24183 1.4.19999.33139.44183.24181 1.06863-.19999 1.4-1.56397 1.17299-2.46095 2.31344-2.9729 3.30964.27903-.0716.57151-.1097.87288-.1097 1.933 0 3.5 1.567 3.5 3.5s-1.567 3.5-3.5 3.5c-1.91365 0-3.4686-1.5358-3.49953-3.4421-.0902-.865-.07703-2.141.50757-3.6142.59744-1.50552 1.76438-3.14793 3.89197-4.74364Zm9 0c.4418-.33137 1.0686-.24183 1.4.19999.3314.44183.2418 1.06863-.2 1.4-1.564 1.17299-2.4609 2.31344-2.9729 3.30964.279-.0716.5715-.1097.8729-.1097 1.933 0 3.5 1.567 3.5 3.5s-1.567 3.5-3.5 3.5c-1.9137 0-3.4686-1.5358-3.4995-3.4421-.0902-.865-.0771-2.141.5075-3.6142.5975-1.50552 1.7644-3.14793 3.892-4.74364Z"
  />
</svg>
